<svg width="61" height="46" viewBox="0 0 61 46" fill="none" xmlns="http://www.w3.org/2000/svg">
<g clip-path="url(#clip0_5_1599)">
<path d="M19.2992 44.7374C19.8584 40.1054 16.6253 36.647 13.1803 33.9798C11.1737 32.4239 9.21221 31.1259 7.90455 28.8988C7.2372 27.7564 6.5969 26.4672 6.22264 25.2003C5.49215 22.7332 6.75472 18.8569 9.87957 21.7019C11.6787 23.3422 12.0936 25.4581 13.4689 27.2807C14.2444 28.312 15.4349 28.8632 16.6749 28.2053C20.404 26.2316 17.5181 19.3858 16.6839 16.6653C15.6738 13.3714 15.1418 10.2019 16.8417 7.03235C17.4009 5.99215 18.0276 4.92083 18.7446 3.98287C19.209 3.37831 19.7997 2.72485 20.4626 2.30699C21.8334 1.43571 22.6585 1.43571 24.1736 1.89802C25.7879 2.39145 25.8014 2.47591 26.1306 4.0051C26.2839 4.7119 26.347 5.48983 26.3831 6.21886C26.4598 7.76138 26.3335 9.31724 26.0134 10.8331C25.4136 13.7092 23.6866 16.2519 23.3079 19.1725C23.0283 21.3196 23.2222 28.1431 26.8115 27.503C31.0185 26.7517 30.7164 20.0927 34.9099 19.2036C38.4 18.4612 40.1045 22.2442 38.6255 24.8402C37.8229 26.2538 36.4882 27.3474 35.203 28.312C32.9124 30.0323 30.1122 30.9303 27.8621 32.6684C23.7903 35.8246 25.1431 40.7855 26.816 44.853C27.1407 45.6398 28.4483 45.2931 28.1191 44.4974C26.9919 41.7546 25.576 38.3984 27.1001 35.5179C28.5114 32.8507 32.236 31.9172 34.6394 30.3435C37.886 28.2187 42.544 24.2179 39.7934 20.0082C37.4937 16.4831 33.0386 17.6611 30.9374 20.6128C30.3016 21.5063 29.8101 22.4887 29.2464 23.4266C28.9894 23.8534 28.7324 24.2846 28.4303 24.6846C28.2138 24.9425 27.9974 25.1959 27.781 25.4537C26.072 25.8271 25.1882 25.3781 25.1296 24.0979C23.4161 20.5061 25.4903 16.8254 26.6537 13.5136C27.5194 11.0509 27.8892 8.42817 27.7043 5.82767C27.578 4.02732 27.3887 1.5913 25.6707 0.515535C24.1601 -0.431314 21.8379 0.111013 20.3544 0.848933C18.1449 1.95137 16.7921 4.2896 15.6738 6.37C12.8015 11.7133 15.7009 16.4208 16.7696 21.8041C16.9094 22.5198 17.2656 24.089 17.0266 24.8847C16.2961 25.5426 15.5656 26.1961 14.8306 26.854C14.4113 26.325 14.0956 25.7471 13.8747 25.1114C13.4508 24.1823 13.0044 23.3155 12.3867 22.4887C11.4127 21.1817 9.57295 19.0347 7.69262 19.1414C5.86641 19.248 4.79323 21.1506 4.59934 22.7376C4.31075 25.0847 5.58684 27.5874 6.74119 29.5789C9.9427 35.0956 18.8663 37.1271 17.9465 44.7463C17.8473 45.5865 19.2 45.582 19.2992 44.7374Z" fill="#46A358"/>
<path d="M30.9869 22.573C31.9609 17.7054 30.1212 13.2557 29.7379 8.45031C29.5079 5.57865 30.748 0.986648 34.689 2.29357C37.6244 3.26709 38.7382 6.71664 38.5398 9.47718C38.3955 11.4953 37.4125 17.4165 41.3535 16.8653C44.7354 16.3941 46.4804 10.8374 48.1218 8.48143C49.5286 6.46326 52.6354 3.51603 55.368 4.33841C59.6968 5.64088 56.9237 10.7619 54.9306 12.7756C51.5713 16.1674 47.991 19.1679 45.0285 22.9464C43.3105 25.138 41.8225 28.7387 45.6327 29.7211C47.0982 30.0989 48.5096 29.5966 49.8307 29.0009C50.8949 28.5209 51.9095 27.9474 53.0413 27.6318C55.1065 27.0539 57.5008 27.5073 56.1346 30.0367C52.9376 35.9623 45.6192 31.5926 40.8981 34.0775C36.8939 36.189 35.9605 40.8566 36.3393 44.9507C36.416 45.7997 37.7732 45.8086 37.6921 44.9507C37.426 42.0968 37.656 39.0118 39.6581 36.7491C42.2463 33.8241 45.7003 34.891 49.1273 34.8243C52.6264 34.7576 57.1311 33.0862 57.8571 29.2321C58.6507 25.0091 53.7718 25.827 51.2692 26.845C50.1644 27.294 49.1318 27.9919 47.9775 28.3208C47.0621 28.5831 45.6147 28.7253 44.8932 27.8763C44.1943 27.0495 44.7579 25.6581 45.1908 24.9557C46.7735 22.3774 49.1995 20.0259 51.3548 17.9055C54.3264 14.9805 59.3947 11.8776 58.9573 7.10783C58.6236 3.45824 55.2057 2.1202 52.0538 3.48935C50.1599 4.31174 48.5952 5.61865 47.3597 7.25008C45.7454 9.37938 44.8842 12.3044 42.9588 14.1803C42.2644 14.856 41.5835 16.2918 40.0323 14.8827C39.3424 14.2559 39.5498 12.5844 39.622 11.7265C39.7167 10.6018 39.9602 9.50385 39.9241 8.3703C39.8655 6.45437 39.2207 4.51177 37.9626 3.02704C35.3022 -0.102451 30.7344 0.0353538 28.9668 3.96056C27.9117 6.30768 28.3761 8.99264 28.818 11.4287C29.4674 15.0249 30.4188 18.5545 29.6838 22.2174C29.517 23.0576 30.8201 23.4176 30.9869 22.573Z" fill="#46A358"/>
<path d="M30.6849 31.0059C30.0491 35.589 29.0075 40.0787 27.5555 44.4796C27.285 45.2975 28.5926 45.6487 28.8587 44.8352C30.3106 40.4344 31.3522 35.9446 31.988 31.3615C32.1053 30.5169 30.8021 30.1568 30.6849 31.0059Z" fill="#46A358"/>
<path d="M14.5059 43.9728C14.3301 40.4432 11.8455 38.0605 8.98673 36.2468C7.13346 35.0688 5.10434 34.0864 3.5126 32.5528C2.82721 31.8949 1.55111 30.6191 1.48348 29.5967C1.25351 26.1871 5.4786 28.841 6.4165 29.6278C7.07484 30.1834 8.0353 29.241 7.37245 28.6854C5.89795 27.4451 3.25107 25.8315 1.22645 26.765C-0.405863 27.5163 -0.135313 29.3788 0.491461 30.7213C3.12932 36.4247 12.806 37.0781 13.1532 43.9728C13.1938 44.8263 14.551 44.8307 14.5059 43.9728Z" fill="#46A358"/>
<path d="M44.8391 45.293C46.5256 42.7859 48.7486 40.7366 51.4721 39.3585C53.9522 38.105 57.0274 37.8871 59.2234 36.1135C61.744 34.0775 61.8748 29.0855 57.7038 29.2144C56.8335 29.241 56.8335 30.5746 57.7038 30.548C59.3496 30.7702 60.017 31.6682 59.7149 33.2374C59.3767 34.1398 58.804 34.851 57.9969 35.3667C57.0094 36.0557 55.8099 36.3713 54.6736 36.7269C53.2262 37.1803 51.8148 37.656 50.4756 38.3672C47.6889 39.852 45.4118 42.0302 43.6668 44.6218C43.1843 45.3375 44.3567 46.0043 44.8391 45.293Z" fill="#46A358"/>
<path d="M48.5141 33.5619C42.7829 34.6287 40.6681 40.252 39.3109 45.173C39.0809 46.0043 40.3886 46.3554 40.614 45.5286C41.8495 41.0522 43.6307 35.8245 48.8748 34.851C49.7271 34.6865 49.3663 33.4018 48.5141 33.5619Z" fill="#46A358"/>
<path d="M18.2937 13.2647C17.6218 10.602 18.4605 7.68585 20.6339 5.89884C21.0713 5.52099 21.5673 5.23205 22.1129 5.03201C23.6145 5.34762 24.3134 6.13889 24.2097 7.4058C24.2368 8.14372 24.0925 8.87275 23.9166 9.584C23.5604 11.0198 22.9336 12.3845 22.4692 13.7893C21.2742 17.4077 19.5562 23.3244 22.7848 26.405C23.0959 26.7029 23.5784 26.2317 23.2628 25.9338C20.431 23.2355 21.883 18.0479 22.8524 14.8161C23.6911 12.0156 25.9683 8.29486 24.4307 5.35207C23.2312 3.05829 20.4806 4.92087 19.3127 6.26336C17.5857 8.25041 17.0041 10.922 17.6398 13.4425C17.7481 13.8604 18.3974 13.6826 18.2937 13.2647Z" fill="#46A358"/>
<path d="M32.5877 24.0623C32.9755 23.2132 33.7601 22.013 34.8107 21.8707C36.4115 21.6529 37.2367 23.6355 36.3799 24.9469C35.5728 26.1827 34.0352 27.0451 32.7095 27.5741C30.5045 28.4498 29.0255 29.6589 27.4247 31.3881C27.1316 31.7038 27.6096 32.1794 27.9027 31.8593C28.8722 30.8058 29.8642 29.7123 31.1268 28.9832C32.1323 28.4009 33.3002 28.1742 34.3102 27.6052C35.5412 26.9073 37.5343 25.4003 37.6786 23.88C37.7958 22.6531 36.4837 21.2306 35.2572 21.155C33.7782 21.0617 32.5426 22.5553 32.006 23.7289C31.8257 24.1112 32.4119 24.4535 32.5877 24.0623Z" fill="#46A358"/>
<path d="M7.3003 24.8358C7.4491 23.6667 7.89551 23.2355 8.63501 23.5511C8.89654 23.5556 9.11298 23.6489 9.29335 23.8312C9.64958 24.0623 9.88405 24.4046 10.096 24.7647C10.4748 25.4093 10.6506 26.1605 10.9302 26.8451C11.2864 27.7253 11.7554 28.441 12.5625 28.9655C12.9277 29.2055 13.2659 28.6277 12.9052 28.3876C10.9212 27.0896 11.4758 23.72 8.99575 22.9021C7.50772 22.4131 6.01068 23.6845 6.71862 25.1692C6.90349 25.5604 7.48517 25.2226 7.3003 24.8358Z" fill="#46A358"/>
<path d="M31.5326 7.58367C31.1809 5.66329 33.2325 4.13411 34.8017 5.53438C35.6675 6.30786 36.0012 7.73036 36.0057 8.84169C36.0147 10.3486 35.3158 11.6956 35.6134 13.207C35.6945 13.6293 36.3484 13.4515 36.2672 13.0292C35.8929 11.131 36.9661 9.31289 36.4836 7.34362C36.1951 6.16561 35.6089 4.85425 34.3733 4.40972C32.1458 3.61401 30.509 5.73887 30.8787 7.75703C30.9599 8.17934 31.6092 8.00152 31.5326 7.58367Z" fill="#46A358"/>
<path d="M31.1944 11.98C32.2946 14.2605 32.8357 16.2609 32.7546 18.7902C32.741 19.2214 33.4174 19.217 33.4309 18.7902C33.5166 16.1319 32.9304 14.0293 31.7806 11.6466C31.5912 11.2599 31.0095 11.5977 31.1944 11.98Z" fill="#46A358"/>
<path d="M48.735 10.0729C49.3888 8.60153 50.6243 7.67246 52.0538 6.97455C52.4641 6.76117 52.8879 6.5878 53.3298 6.45C55.2372 7.09012 55.7197 7.97474 54.7773 9.11274C54.3264 9.81065 53.6725 10.4374 53.1089 11.0509C50.9625 13.3847 48.6448 15.5451 46.1963 17.5633C45.8627 17.8389 46.3406 18.3101 46.6743 18.0345C48.8883 16.2119 50.9941 14.2737 52.9601 12.1933C54.1415 10.9442 56.4096 9.09051 55.9136 7.1168C54.9261 3.20493 48.9785 7.86805 48.1488 9.73952C47.9775 10.1263 48.5637 10.4641 48.735 10.0729Z" fill="#46A358"/>
<path d="M44.9158 19.9858C42.7559 21.5506 41.4437 23.831 41.1957 26.4582C41.1551 26.885 41.8315 26.8805 41.8721 26.4582C42.0976 24.0844 43.306 21.9729 45.2585 20.5593C45.6057 20.3104 45.2675 19.728 44.9158 19.9858Z" fill="#46A358"/>
<path d="M49.195 31.1082C49.6369 30.8459 50.0788 30.5703 50.5432 30.3436C50.8949 30.1524 51.2647 30.0057 51.6525 29.9035C52.3785 29.6056 52.622 30.1613 52.3785 31.5705C51.9005 32.4995 49.3122 32.5351 48.5096 32.4862C46.503 32.3706 44.6137 31.8283 42.6341 32.4284C42.2193 32.5529 42.3952 33.1974 42.8145 33.073C45.1908 32.3484 47.504 33.4019 49.9029 33.1397C51.2061 32.993 53.0503 32.4017 53.6996 31.1571C54.0604 30.4636 53.9747 29.5479 53.1856 29.17C51.8915 28.5521 49.8714 29.9213 48.8523 30.5303C48.4825 30.757 48.8207 31.3349 49.195 31.1082Z" fill="#46A358"/>
<path d="M39.1395 33.5886C35.6224 36.4025 34.3417 40.67 33.9855 44.973C33.9495 45.3998 34.6258 45.3998 34.6619 44.973C35.0046 40.8345 36.2356 36.7626 39.6175 34.0598C39.9557 33.7887 39.4732 33.3219 39.1395 33.5886Z" fill="#46A358"/>
<path d="M24.0022 34.722C22.9561 36.5091 22.9877 38.4561 23.2176 40.4565C23.4115 42.1368 23.6325 43.786 24.8094 45.0929C25.098 45.413 25.5759 44.9418 25.2873 44.6217C24.133 43.3415 23.9887 41.5634 23.8354 39.9275C23.6731 38.2249 23.6956 36.5757 24.5884 35.0554C24.8049 34.6865 24.2232 34.3531 24.0022 34.722Z" fill="#46A358"/>
<path d="M5.34334 30.3301C3.38636 30.3568 4.16193 32.3883 5.20806 33.1173C6.51572 34.0286 8.00374 34.6376 9.39257 35.4066C11.0294 36.3135 11.6877 37.8427 12.9458 39.1185C13.2479 39.4252 13.7259 38.954 13.4238 38.6473C12.1747 37.3804 11.5705 35.8645 9.96072 34.9577C9.14907 34.4998 8.29684 34.1131 7.48068 33.673C7.05682 33.4463 6.63296 33.2195 6.22713 32.9662C6.0648 32.8684 5.89796 32.7661 5.73563 32.6683C4.92849 32.366 4.80224 31.8104 5.34784 31.0013C5.77621 30.9924 5.77622 30.3257 5.34334 30.3301Z" fill="#46A358"/>
<path d="M56.2383 33.402C56.2608 34.2911 55.846 34.7756 54.9848 34.8601C54.5699 35.0245 54.1596 35.1846 53.7447 35.349C53.127 35.5935 52.5047 35.838 51.887 36.0825C50.444 36.6515 48.9966 37.225 47.5536 37.794C47.1523 37.9495 47.3282 38.5986 47.734 38.4385C49.3844 37.7851 51.0347 37.1361 52.6851 36.4826C53.9071 35.9981 55.4672 35.6513 56.5539 34.8956C57.4964 34.2377 57.5234 32.873 56.2338 32.7352C55.8054 32.6863 55.8099 33.3576 56.2383 33.402Z" fill="#46A358"/>
<path d="M46.0025 38.7183C44.1898 40.4076 42.7604 42.3902 41.7503 44.6395C41.5745 45.0262 42.1561 45.3685 42.3365 44.9773C43.324 42.7814 44.7083 40.8432 46.4849 39.194C46.7961 38.8962 46.3181 38.425 46.0025 38.7183Z" fill="#46A358"/>
<path d="M14.5511 41.6347C15.0696 42.3904 15.4033 43.2038 15.5611 44.1018C15.6333 44.5241 16.2871 44.3463 16.215 43.924C16.0481 42.9771 15.6829 42.0925 15.1373 41.2968C14.8938 40.9456 14.3076 41.279 14.5511 41.6347Z" fill="#46A358"/>
</g>
<defs>
<clipPath id="clip0_5_1599">
<rect width="61" height="46" fill="white"/>
</clipPath>
</defs>
</svg>
