<svg width="55" height="48" viewBox="0 0 55 48" fill="none" xmlns="http://www.w3.org/2000/svg">
<g clip-path="url(#clip0_5_1505)">
<path d="M9.12929 1.35694C21.7023 3.02051 34.3918 3.28199 47.0231 2.13688C47.8795 2.06024 47.8885 0.707744 47.0231 0.784385C34.3918 1.9295 21.7023 1.66801 9.12929 0.0044472C8.27734 -0.108261 8.28182 1.24874 9.12929 1.35694Z" fill="#727272"/>
<path d="M12.0304 47.0307C17.465 47.725 22.9354 48.0631 28.4147 47.9865C33.235 47.9189 38.9251 48.1308 43.4449 46.2237C44.2296 45.8901 43.8843 44.5827 43.0862 44.9208C38.4498 46.8775 32.5086 46.6115 27.5493 46.643C22.3569 46.6791 17.178 46.3365 12.0259 45.6782C11.174 45.57 11.1785 46.9225 12.0304 47.0307Z" fill="#727272"/>
<path d="M8.60467 0.3155C2.33164 6.16729 -0.591891 14.8909 0.0986352 23.3981C0.452866 27.7937 1.69043 32.0675 3.55127 36.0529C5.2462 39.6866 7.74375 44.8937 11.4923 46.7827C12.2636 47.1704 12.9451 46.0072 12.1694 45.615C8.68089 43.8568 6.30889 38.7939 4.71261 35.3721C2.85626 31.3823 1.64111 27.0498 1.39001 22.6452C0.941616 14.706 3.71269 6.72181 9.55975 1.27126C10.1965 0.680673 9.24139 -0.275089 8.60467 0.3155Z" fill="#727272"/>
<path d="M46.5478 1.95215C53.1661 6.12234 53.7893 15.1164 53.6279 22.199C53.4486 30.0975 52.4755 42.6126 43.0862 44.9209C42.2477 45.1283 42.6019 46.4312 43.4449 46.2238C53.2468 43.8163 54.6547 31.3959 54.9507 23.0375C55.2242 15.2156 54.5337 5.38749 47.2248 0.7845C46.4895 0.324652 45.8169 1.49231 46.5478 1.95215Z" fill="#727272"/>
<path d="M13.5774 1.36604C8.64058 6.70839 6.46138 15.6303 7.2954 22.785C7.77966 26.9462 9.08897 31.0758 10.062 35.1378C11.0395 39.2088 12.0484 43.2483 14.2634 46.8414C14.7208 47.5807 15.8821 46.9 15.4248 46.1606C13.3442 42.7884 12.3757 39.0195 11.4565 35.2009C10.5687 31.5221 9.53288 27.8388 8.84684 24.1195C7.5465 17.0369 9.58221 7.67767 14.528 2.3218C15.1154 1.68162 14.1648 0.725856 13.5774 1.36604Z" fill="#727272"/>
<path d="M20.2405 1.92945C16.5637 8.43945 14.6311 15.8331 14.7297 23.3259C14.7791 26.9235 15.2902 30.5257 16.2677 33.9881C17.4829 38.2845 19.3303 42.36 20.1374 46.7736C20.2943 47.6302 21.5902 47.265 21.4332 46.413C20.7292 42.5493 19.2361 38.9517 18.0478 35.2278C16.8955 31.6122 16.2049 27.8838 16.0884 24.0833C15.8552 16.5679 17.7116 9.14275 21.4018 2.61021C21.8323 1.85281 20.6709 1.17205 20.2405 1.92945Z" fill="#727272"/>
<path d="M24.2043 3.22343C25.4822 10.7343 23.9308 18.2586 24.0608 25.8011C24.1191 29.2454 24.8858 32.4508 25.3342 35.8411C25.8006 39.3621 25.0024 42.9822 24.5675 46.4762C24.4599 47.3373 25.8051 47.3282 25.9127 46.4762C26.3521 42.9507 27.1458 39.3034 26.6794 35.7509C26.2041 32.1172 25.4015 28.6728 25.397 24.976C25.388 17.5779 26.7512 10.2339 25.5001 2.86727C25.3522 2.01069 24.0563 2.37136 24.2043 3.22343Z" fill="#727272"/>
<path d="M29.2487 2.59676C31.6118 9.38177 31.8987 16.541 32.1364 23.6596C32.3965 31.3914 32.0108 39.0014 30.576 46.6114C30.4146 47.4635 31.7104 47.8287 31.8718 46.9721C33.3291 39.2448 33.7461 31.5086 33.4816 23.6596C33.2394 16.4238 32.9435 9.12931 30.5446 2.2361C30.2621 1.4246 28.9618 1.77625 29.2487 2.59676Z" fill="#727272"/>
<path d="M34.9075 2.62837C35.4052 4.15668 36.4813 5.17556 37.3064 6.51904C38.248 8.05187 38.7637 9.78757 39.0417 11.5548C39.647 15.4139 39.36 19.4534 39.3511 23.3441C39.3421 27.5774 39.6649 32.0541 38.5753 36.1882C37.6158 39.8174 35.4142 42.9462 34.6788 46.652C34.5084 47.5041 35.8043 47.8648 35.9747 47.0127C36.7638 43.0454 39.2031 39.6867 40.064 35.7374C40.9473 31.698 40.6873 27.4511 40.6962 23.3441C40.7052 19.5481 40.9339 15.6664 40.4362 11.8929C40.2165 10.2249 39.8398 8.57483 39.1224 7.05102C38.3242 5.35139 36.7862 4.0575 36.2078 2.27221C35.9343 1.44719 34.634 1.79884 34.9075 2.62837Z" fill="#727272"/>
<path d="M41.4495 2.41635C44.1219 4.941 45.4088 8.97143 46.3729 12.4518C47.3773 16.0765 47.041 19.9447 46.8168 23.655C46.3639 31.1839 45.0994 38.7038 41.5078 45.4121C41.0953 46.1785 42.2566 46.8638 42.6692 46.0929C46.4984 38.9382 47.7764 30.8954 48.2023 22.8706C48.4176 18.8311 48.5924 14.8863 47.3324 10.9957C46.2384 7.61894 45.0322 3.94917 42.4001 1.45608C41.7724 0.865487 40.8173 1.82125 41.4495 2.41635Z" fill="#727272"/>
<path d="M13.4697 5.79768C13.3307 6.15384 13.1783 6.50549 13.0124 6.85263C12.8016 7.28993 13.0482 7.88954 13.5953 7.87151C13.9854 7.85798 14.2948 7.68216 14.5728 7.41617C14.6625 7.33051 14.7521 7.24034 14.8373 7.15469C14.9494 7.04198 14.8015 7.22231 14.8867 7.11862C14.8687 7.14567 14.7746 7.13665 14.8598 7.14567C14.6445 6.86165 14.4293 6.57311 14.2096 6.28909C14.1513 6.59115 14.0885 6.8932 14.0302 7.19977C13.9585 7.55593 14.1334 7.93012 14.501 8.03381C14.8329 8.12397 15.2588 7.9211 15.3306 7.56043C15.3889 7.25838 15.4516 6.95632 15.5099 6.64975C15.5996 6.18991 15.3171 5.83826 14.8598 5.79318C14.4876 5.75711 14.1513 5.95547 13.8867 6.19892C13.7926 6.28458 13.7119 6.37475 13.6177 6.46041C13.5863 6.48746 13.5594 6.51451 13.528 6.54156C13.5415 6.52803 13.5549 6.51901 13.5684 6.50549C13.5011 6.54156 13.5011 6.54606 13.5774 6.51451C13.5011 6.53254 13.5056 6.53705 13.5908 6.51451C13.7836 6.85263 13.9764 7.19075 14.1737 7.53338C14.3889 7.08255 14.5862 6.6227 14.7656 6.15835C14.8956 5.81572 14.6221 5.41448 14.2948 5.32431C13.9181 5.22062 13.6043 5.45505 13.4697 5.79768Z" fill="#727272"/>
<path d="M10.1382 13.8902C10.0754 14.2689 10.0127 14.6476 9.94988 15.0217C9.90056 15.3238 9.98127 15.6213 10.2593 15.7836C10.5059 15.9279 10.8781 15.9009 11.0754 15.68C11.2054 15.5312 11.3354 15.3824 11.4655 15.2336C11.5506 15.1345 11.6717 14.9496 11.7748 14.8955C11.6627 14.9271 11.5506 14.9586 11.4341 14.9857C11.4565 14.9812 11.4834 14.9812 11.5058 14.9767C11.3937 14.9451 11.2816 14.9135 11.165 14.8865C11.183 14.9 11.2009 14.9135 11.2188 14.9271C11.1067 14.7332 10.9946 14.5394 10.887 14.341C10.9229 14.7287 10.8153 15.1615 10.7704 15.5537C10.7077 16.1173 11.3758 16.3246 11.7838 16.1398C12.3129 15.8918 12.6672 15.4365 12.8555 14.891C12.4788 14.9902 12.1067 15.0894 11.73 15.1886C11.7166 15.1029 11.7031 15.0172 11.6897 14.9316C11.4699 15.7746 12.7703 16.1353 12.9855 15.2922C13.0842 14.909 12.9945 14.4898 12.6806 14.2328C12.277 13.9037 11.7345 14.0209 11.5551 14.5303C11.4744 14.7558 11.3085 14.873 11.1023 14.9722C11.4386 15.166 11.7748 15.3599 12.1156 15.5582C12.1829 14.9541 12.5057 13.8811 11.6807 13.6512C10.9857 13.4574 10.4969 14.2869 10.1203 14.7242C10.4969 14.9451 10.8691 15.1615 11.2457 15.3824C11.3085 15.0037 11.3713 14.625 11.4341 14.2508C11.4924 13.8902 11.3399 13.5205 10.9633 13.4168C10.6449 13.3311 10.1965 13.5295 10.1382 13.8902Z" fill="#727272"/>
<path d="M9.55974 22.0367C9.60458 22.5687 9.6539 23.1007 9.69874 23.6281C9.766 24.381 10.7749 24.5568 11.0215 23.8085C11.156 23.3937 11.3443 23.0195 11.582 22.6498C11.174 22.5957 10.7614 22.5416 10.3534 22.4875C10.5103 22.8798 10.6179 23.281 10.6762 23.7048C10.7435 24.1827 11.3219 24.2638 11.6627 24.1105C11.8331 24.0339 11.9721 23.8851 12.0618 23.7228C12.1021 23.6507 12.1335 23.565 12.1604 23.4884C12.1739 23.4478 12.1828 23.4072 12.1963 23.3666C12.2187 23.299 12.2097 23.3035 12.1784 23.3802C12.0797 23.4388 11.9811 23.4974 11.8824 23.556C11.9048 23.547 11.9317 23.5425 11.9542 23.5335C11.8331 23.5335 11.7165 23.5335 11.5954 23.5335C11.5865 23.5289 11.5775 23.5244 11.573 23.5154C11.4923 23.4343 11.4116 23.3531 11.3309 23.272C11.3443 23.29 11.3533 23.308 11.3668 23.3261C11.3443 23.1503 11.3219 22.9789 11.2995 22.8031C11.295 22.8257 11.295 22.8482 11.2905 22.8662C11.2412 23.2269 11.3757 23.5921 11.7614 23.7003C12.0752 23.7859 12.5416 23.5921 12.5909 23.2269C12.6312 22.9339 12.6088 22.6679 12.3936 22.447C12.2142 22.2666 11.9407 22.181 11.6896 22.208C11.4295 22.2396 11.2009 22.3929 11.0619 22.6138C11.0036 22.7084 10.9229 22.8392 10.9184 22.9474C10.9139 23.1052 10.8466 22.9925 10.9901 22.9293C11.3174 23.0646 11.6493 23.1998 11.9766 23.3351C11.9183 22.9158 11.8107 22.5146 11.6537 22.1178C11.4385 21.5859 10.757 21.4326 10.4251 21.9555C10.1292 22.4199 9.90052 22.9158 9.73013 23.4343C10.1696 23.4929 10.609 23.556 11.0529 23.6146C11.0081 23.0826 10.9587 22.5506 10.9139 22.0232C10.8825 21.658 10.6269 21.3469 10.2413 21.3469C9.89603 21.3604 9.52835 21.6715 9.55974 22.0367Z" fill="#727272"/>
<path d="M11.1784 31.5762C11.2233 32.3561 11.6134 33.0369 12.2905 33.4336C12.7389 33.6906 13.2949 33.3615 13.3038 32.8475C13.3083 32.4508 13.398 32.0856 13.5505 31.7204C13.1738 31.8196 12.8016 31.9188 12.425 32.018C12.6088 32.2434 12.8061 32.4418 13.0258 32.6266C13.3845 32.9287 14.0392 32.8701 14.1513 32.3291C14.1782 32.2073 14.2096 32.1036 14.2499 31.9909C13.8733 32.0901 13.5011 32.1893 13.1245 32.2885C13.1648 32.2659 13.1873 32.293 13.1828 32.3651C13.3263 32.7033 13.8195 32.7754 14.102 32.6086C14.4472 32.4057 14.4876 32.0225 14.3441 31.6844C14.2858 31.5491 14.1917 31.4274 14.0751 31.3327C13.6581 31.0036 13.1469 31.1253 12.9496 31.6303C12.9048 31.743 12.8734 31.8512 12.851 31.9684C13.2276 31.8692 13.5998 31.77 13.9764 31.6708C13.7567 31.486 13.5594 31.2831 13.3756 31.0622C13.0169 30.6204 12.425 30.9495 12.2501 31.3598C12.0528 31.8331 11.9631 32.3336 11.9542 32.8475C12.2905 32.6537 12.6268 32.4598 12.9675 32.2614C12.7075 32.1127 12.5371 31.8782 12.5191 31.5717C12.4743 30.7151 11.1291 30.7061 11.1784 31.5762Z" fill="#727272"/>
<path d="M13.9496 40.8498C14.1065 41.2555 14.2948 41.6297 14.5504 41.9859C14.9495 42.5359 15.7431 42.333 15.8059 41.6433C15.8104 41.6027 15.8821 41.1023 15.8552 41.0797C15.6624 41.2014 15.4741 41.3232 15.2813 41.4449C15.3261 41.508 15.3665 41.5666 15.4158 41.6252C15.5862 41.8416 15.7969 42.0265 16.0705 42.1031C16.2812 42.1572 16.5278 42.1302 16.7117 42.0129C16.8327 41.9318 16.9179 41.8371 16.9807 41.7064C17.0031 41.6523 17.0255 41.5982 17.048 41.5441C17.1511 41.2195 16.9538 41.1654 16.4606 41.3818C16.7296 42.2023 18.0299 41.8506 17.7564 41.0211C17.5681 40.4531 17.0211 40.0834 16.4247 40.3088C16.1826 40.4035 15.9718 40.5838 15.8552 40.8182C15.8194 40.8904 15.6893 41.2014 15.7342 41.2916C15.9942 41.1428 16.2498 40.9896 16.5099 40.8408C16.474 40.7957 16.4381 40.7551 16.4068 40.71C16.1915 40.2727 15.5683 40.0248 15.1199 40.1871C14.4876 40.4125 14.5145 41.0887 14.4652 41.6478C14.8822 41.5351 15.2992 41.4224 15.7207 41.3051C15.5369 41.0527 15.371 40.7867 15.2544 40.4936C14.9315 39.6912 13.6312 40.0383 13.9496 40.8498Z" fill="#727272"/>
<path d="M21.1373 5.98245C20.6531 6.34762 20.2495 6.78042 19.985 7.33494C19.6397 8.05627 20.4423 8.62432 21.0432 8.15545C21.1867 8.04274 21.3301 7.93004 21.4736 7.81733C21.5364 7.76774 21.5992 7.71815 21.6664 7.66855C21.6978 7.6415 21.7292 7.61896 21.7606 7.59191C21.8727 7.51076 21.8144 7.52429 21.5857 7.62798C21.4736 7.59642 21.3615 7.56486 21.2449 7.53781C21.2584 7.54683 21.2718 7.55585 21.2853 7.56486C21.2046 7.48371 21.1239 7.40256 21.0432 7.32141C21.0297 7.26281 21.0118 7.20871 20.9983 7.1501C21.0028 7.08698 21.0028 7.07797 20.9894 7.13206C20.958 7.15461 20.949 7.30789 20.949 7.33043C20.9176 7.53781 20.9356 7.74069 21.0432 7.93004C21.1418 8.10135 21.3167 8.25463 21.5095 8.30423C21.5902 8.32677 21.6933 8.33578 21.7785 8.33578C21.8592 8.33578 21.931 8.32226 22.0027 8.29521C22.0969 8.26816 22.0655 8.25914 21.9041 8.26816C21.8054 8.20955 21.7068 8.15094 21.6081 8.09234C21.6216 8.10586 21.635 8.11939 21.6485 8.13291C21.5902 8.03373 21.5319 7.93454 21.4736 7.83536C21.4781 7.84889 21.4826 7.86692 21.4871 7.88044C21.5095 7.70462 21.5319 7.5333 21.5543 7.35748C21.5454 7.37101 21.5409 7.38453 21.5319 7.39806C21.1239 8.16447 22.2852 8.84973 22.6933 8.07881C22.8681 7.75421 22.8278 7.38904 22.5543 7.13206C22.4108 6.99682 22.218 6.91567 22.0207 6.91116C21.9086 6.90665 21.7785 6.97878 21.6799 6.96977C21.792 7.00132 21.9041 7.03288 22.0207 7.05993C22.0027 7.04641 21.9848 7.03288 21.9713 7.02387C22.0521 7.10502 22.1328 7.18617 22.2135 7.26731C22.2045 7.24928 22.1955 7.23125 22.1866 7.21321C22.218 7.32592 22.2493 7.43863 22.2762 7.55585C22.2673 7.47019 22.2807 7.51527 22.3121 7.38904C22.348 7.23125 22.3525 7.05993 22.3166 6.89763C22.2404 6.57303 21.9982 6.3386 21.6754 6.27999C21.3391 6.21688 21.1104 6.3927 20.8548 6.59107C20.5993 6.78943 20.3437 6.99231 20.0881 7.19067C20.4423 7.46568 20.7921 7.73618 21.1463 8.01119C21.3077 7.67757 21.514 7.37101 21.8144 7.14559C22.1059 6.92919 22.2538 6.55951 22.0565 6.22139C21.8906 5.93736 21.4333 5.76605 21.1373 5.98245Z" fill="#727272"/>
<path d="M18.5052 13.5925C18.3931 14.1335 18.2855 14.6745 18.1734 15.22C18.0344 15.9097 18.7788 16.3065 19.2989 15.8782C19.4513 15.7519 19.5859 15.5941 19.6845 15.4228C19.7518 15.3056 19.8325 15.0667 19.8684 15.0081C19.7876 15.0892 19.7069 15.1704 19.6262 15.2515C19.6486 15.238 19.6666 15.2245 19.689 15.2064C19.5769 15.238 19.4648 15.2696 19.3482 15.2966C19.3751 15.2921 19.402 15.2921 19.4289 15.2876C19.3168 15.256 19.2047 15.2245 19.0881 15.1974C18.9805 15.1478 18.976 14.972 19.0074 15.2019C19.0164 15.2605 19.0299 15.3101 19.0478 15.3642C19.1106 15.5671 19.2227 15.7474 19.3931 15.8737C19.55 15.9909 19.7338 16.054 19.9311 16.0495C20.0522 16.045 20.1643 16.0134 20.2719 15.9593C20.3302 15.9368 20.3795 15.9052 20.4244 15.8646C20.5409 15.7835 20.5096 15.788 20.3347 15.8692C20.2226 15.8376 20.1105 15.806 19.9939 15.779C20.0118 15.788 20.0163 15.797 20.0298 15.8331C20.3167 16.6491 21.6171 16.2974 21.3256 15.4724C21.2001 15.1163 21.0162 14.7872 20.671 14.6113C20.4916 14.5167 20.2674 14.4896 20.0701 14.5347C19.8728 14.5798 19.7563 14.7105 19.5859 14.7917C19.698 14.7601 19.8101 14.7286 19.9266 14.7015C19.9042 14.7015 19.8773 14.7015 19.8549 14.7015C19.967 14.7331 20.0791 14.7646 20.1957 14.7917C20.3167 15.0036 20.3526 15.0351 20.3033 14.8863C20.2943 14.8277 20.2854 14.7691 20.2764 14.7105C20.245 14.5933 20.1957 14.4716 20.1329 14.3724C19.967 14.1109 19.6935 13.9396 19.3841 13.9441C19.0792 13.9486 18.8012 14.1244 18.6577 14.3904C18.5366 14.6158 18.5456 14.7511 18.3393 14.9224C18.716 15.1433 19.0881 15.3597 19.4648 15.5806C19.5769 15.0396 19.6845 14.4986 19.7966 13.9576C19.976 13.1011 18.6801 12.7404 18.5052 13.5925Z" fill="#727272"/>
<path d="M17.9851 20.5039C17.8461 21.2298 17.7564 21.9601 17.734 22.695C17.716 23.2089 18.3169 23.5335 18.7473 23.281C18.9446 23.1638 19.0881 23.006 19.1957 22.8032C19.2361 22.7265 19.3527 22.5507 19.3303 22.4831C19.3258 22.4741 19.2854 22.5327 19.3034 22.5236C19.1913 22.5552 19.0792 22.5868 18.9626 22.6138C18.9536 22.6183 18.9402 22.6183 18.9312 22.6228C18.8505 22.5417 18.7698 22.4605 18.6891 22.3794C18.7653 22.4786 18.7563 22.4695 18.7653 22.5732C18.8146 23.1278 19.4782 23.4974 19.9132 23.0511C19.9625 22.997 20.0118 22.9474 20.0656 22.8978C19.9715 22.9429 19.8728 22.9339 19.7787 22.8798C19.7204 22.7806 19.6621 22.6814 19.6038 22.5823C19.6127 22.6093 19.6217 22.6364 19.6352 22.6634C19.7607 23.006 20.0925 23.2405 20.4647 23.1368C20.792 23.0466 21.0611 22.6499 20.9355 22.3027C20.5858 21.347 19.5679 21.4687 18.9626 22.0954C19.3437 22.2531 19.7293 22.4154 20.1105 22.5732C20.0567 21.9195 19.7338 21.2117 18.9626 21.2613C18.6487 21.2793 18.3707 21.4642 18.2048 21.7302C18.1465 21.8249 18.1061 21.9331 18.0613 22.0367C18.012 22.1495 17.9268 22.19 18.0658 22.1089C18.4021 22.3027 18.7384 22.4966 19.0792 22.695C19.0971 22.0773 19.1644 21.4687 19.2809 20.8601C19.4468 20.0125 18.151 19.6518 17.9851 20.5039Z" fill="#727272"/>
<path d="M18.6532 28.2265C18.8056 28.8306 18.9895 29.4212 19.2047 30.0028C19.3796 30.4761 19.9401 30.6745 20.3302 30.3003C20.5006 30.1335 20.6171 29.9396 20.6754 29.7052C20.6979 29.6105 20.7158 29.4978 20.7203 29.4031C20.7337 29.1146 20.7023 29.3536 20.7292 29.34C20.6171 29.3716 20.505 29.4031 20.3885 29.4302C20.4198 29.4302 20.4468 29.4257 20.4781 29.4257C20.366 29.3941 20.2539 29.3626 20.1374 29.3355C20.0477 29.2949 20.0746 29.2544 20.1463 29.3806C20.1822 29.4437 20.2136 29.4978 20.2584 29.5564C20.3974 29.7368 20.5678 29.8585 20.7965 29.89C20.9983 29.9171 21.1911 29.8675 21.3615 29.7503C21.4556 29.6827 21.5408 29.606 21.6036 29.5068C21.6305 29.4527 21.6574 29.3986 21.6798 29.3445C21.7695 29.1687 21.6933 29.2138 21.4512 29.4843C21.3301 29.4843 21.2135 29.4843 21.0924 29.4843C21.0386 29.4392 20.9893 29.3896 20.9355 29.3445C20.9041 29.2318 20.8727 29.1191 20.8458 29.0019C20.8458 29.029 20.8458 29.056 20.8458 29.0831C20.8324 29.9532 22.1776 29.9532 22.191 29.0831C22.2 28.6277 21.8861 28.2716 21.4512 28.1814C21.218 28.1318 20.9848 28.1814 20.792 28.3211C20.6979 28.3888 20.6216 28.4654 20.5589 28.5601C20.5454 28.5871 20.5319 28.6187 20.514 28.6457C20.3974 28.8712 20.4288 28.8667 20.6127 28.6322C20.7248 28.6007 20.8369 28.5691 20.9534 28.5421C20.931 28.5466 20.9086 28.5466 20.8862 28.5511C20.9983 28.5826 21.1104 28.6142 21.227 28.6412C21.4198 28.7359 21.3211 28.7044 21.2494 28.5781C21.1956 28.4789 21.1238 28.3843 21.0431 28.3121C20.7875 28.0822 20.4512 28.0236 20.1329 28.1363C19.8773 28.2265 19.6845 28.4248 19.5544 28.6548C19.4827 28.7855 19.4468 28.9162 19.4199 29.0605C19.4065 29.1236 19.4199 29.304 19.3796 29.3445C19.7562 29.4437 20.1284 29.5429 20.505 29.6421C20.2898 29.0605 20.106 28.4654 19.9535 27.8658C19.7338 27.0273 18.4379 27.3834 18.6532 28.2265Z" fill="#727272"/>
<path d="M19.3302 34.6869C19.5724 35.4037 19.8818 36.0935 20.2629 36.7427C20.5364 37.207 21.1418 37.1529 21.4242 36.7427C21.5005 36.63 21.5543 36.5128 21.5901 36.382C21.5946 36.3414 21.5991 36.3054 21.6081 36.2648C21.6798 36.0033 21.617 36.0123 21.4108 36.2964C21.2897 36.2964 21.1731 36.2964 21.0521 36.2964C20.8637 36.2378 20.9489 36.2513 21.0476 36.3595C21.1193 36.4361 21.209 36.5173 21.3032 36.5714C21.496 36.6796 21.7247 36.7202 21.9444 36.7021C22.4466 36.6661 22.7918 36.3324 22.9577 35.8771C23.2582 35.0611 21.9578 34.7049 21.6619 35.5164C21.7471 35.291 21.9578 35.4172 21.922 35.309C21.8951 35.2324 21.7381 35.1287 21.6664 35.0881C21.4467 34.9619 21.1821 34.9349 20.9445 35.016C20.7247 35.0881 20.5499 35.2549 20.4378 35.4578C20.3391 35.6382 20.366 35.9086 20.2584 36.0619C20.644 36.0619 21.0341 36.0619 21.4198 36.0619C21.0924 35.5074 20.8279 34.9394 20.6216 34.3307C20.3526 33.5102 19.0522 33.8619 19.3302 34.6869Z" fill="#727272"/>
<path d="M21.1014 42.4008C21.1059 42.775 21.1597 43.1492 21.2763 43.5008C21.3615 43.7578 21.5633 43.9471 21.8368 43.9832C22.0834 44.0148 22.3928 43.9021 22.5049 43.6586C22.5811 43.4963 22.6574 43.334 22.7336 43.1762C22.7695 43.0996 22.8053 43.0274 22.8367 42.9508C22.8546 42.9147 22.8726 42.8742 22.8905 42.8381C22.9264 42.7705 22.9264 42.7705 22.8905 42.8381C22.7919 42.8967 22.6932 42.9553 22.5946 43.0139C22.608 43.0094 22.626 43.0004 22.6394 42.9959C22.5184 42.9959 22.4018 42.9959 22.2807 42.9959C22.2583 42.9869 22.2314 42.9733 22.209 42.9643C22.1282 42.8832 22.0475 42.802 21.9668 42.7209C21.8996 42.6082 21.9623 42.7028 21.9892 42.7795C22.0117 42.8516 22.0386 42.9192 22.061 42.9914C22.1103 43.1311 22.1596 43.2754 22.2045 43.4152C22.3211 43.7623 22.6663 43.9877 23.034 43.8885C23.3658 43.7984 23.6214 43.4016 23.5048 43.0545C23.312 42.4955 23.1506 41.5758 22.3704 41.6795C21.765 41.7606 21.5633 42.5 21.3391 42.9779C21.7471 43.032 22.1596 43.0861 22.5677 43.1402C22.4825 42.8742 22.4421 42.6578 22.4376 42.3963C22.4332 42.0446 22.1327 41.702 21.7651 41.72C21.4108 41.7381 21.0969 42.0221 21.1014 42.4008Z" fill="#727272"/>
<path d="M27.2803 43.2211C27.2444 43.5277 27.2085 43.8388 27.1727 44.1453C27.1368 44.4339 27.4058 44.7269 27.6659 44.799C27.9708 44.8847 28.2533 44.7359 28.4237 44.488C28.5448 44.3121 28.6658 44.1408 28.7869 43.965C28.8407 43.8838 28.899 43.8072 28.9528 43.7261C28.9752 43.6945 28.9976 43.6629 29.02 43.6314C29.1187 43.4961 29.1052 43.5051 28.9842 43.6584C28.8721 43.69 28.76 43.7215 28.6434 43.7486C28.6658 43.7486 28.6838 43.7486 28.7062 43.7486C28.5941 43.717 28.482 43.6855 28.3654 43.6584C28.2309 43.424 28.186 43.3789 28.2309 43.5232C28.2443 43.5773 28.2533 43.6359 28.2667 43.69C28.2892 43.8027 28.3116 43.9109 28.3385 44.0236C28.3878 44.258 28.4102 44.533 28.5313 44.7449C28.6479 44.9433 28.8407 45.1146 29.0649 45.1777C29.4102 45.2724 29.6926 45.0966 29.8944 44.8261C30.1141 44.533 29.9393 44.0687 29.6523 43.9019C29.307 43.699 28.9528 43.8523 28.7331 44.1453C28.7241 44.1589 28.7151 44.1724 28.7062 44.1814C28.899 44.0687 29.0918 43.956 29.2891 43.8478C29.2756 43.8478 29.2622 43.8523 29.2487 43.8523C29.3608 43.8838 29.4729 43.9154 29.5895 43.9425C29.7061 44.0011 29.7778 44.3302 29.7106 43.9966C29.6926 43.9019 29.6702 43.8117 29.6523 43.717C29.6164 43.5502 29.585 43.3834 29.5492 43.2166C29.4684 42.865 29.2577 42.5223 28.89 42.4186C28.482 42.3059 28.1591 42.5404 27.9305 42.8469C27.7018 43.158 27.4865 43.4781 27.2668 43.7937C27.6838 43.9064 28.1008 44.0191 28.5223 44.1363C28.5582 43.8297 28.5941 43.5187 28.6299 43.2121C28.6703 42.8469 28.2892 42.5359 27.9574 42.5359C27.5583 42.5449 27.3251 42.8605 27.2803 43.2211Z" fill="#727272"/>
<path d="M27.926 30.8729C27.76 31.5942 27.6793 32.3336 27.6928 33.073C27.7018 33.7086 28.6344 34.0377 28.9483 33.4156C29.0828 33.1451 29.2173 32.8791 29.3518 32.6086C29.4505 32.4102 29.5222 32.1623 29.7016 32.0225C29.6029 32.0811 29.5043 32.1397 29.4057 32.1984C29.4057 32.1938 29.4057 32.1893 29.4101 32.1848C29.1949 32.018 28.9797 31.8557 28.76 31.6889C28.8452 32.009 28.9304 32.3291 29.0156 32.6492C29.1232 33.0504 29.6388 33.2939 30.002 33.0549C30.0648 33.0144 30.1276 32.9693 30.1903 32.9287C30.9078 32.4508 30.2352 31.2787 29.5133 31.761C29.4505 31.8016 29.3877 31.8467 29.3249 31.8873C29.6523 32.0225 29.9841 32.1578 30.3114 32.293C30.2262 31.9729 30.141 31.6528 30.0558 31.3328C29.9796 31.0487 29.7016 30.8323 29.4057 30.8368C28.4595 30.8549 28.1367 32.0361 27.787 32.7394C28.204 32.8521 28.621 32.9648 29.0425 33.082C29.0335 32.4553 29.0873 31.8512 29.2263 31.2381C29.4146 30.386 28.1188 30.0253 27.926 30.8729Z" fill="#727272"/>
<path d="M26.6436 20.7563C26.675 21.2883 26.7019 21.8157 26.7333 22.3477C26.7691 23.015 27.6211 23.2719 27.9888 22.6904C28.2488 22.2756 28.5089 21.8653 28.769 21.4506C28.3834 21.4506 27.9933 21.4506 27.6076 21.4506C27.7018 21.6129 27.7601 21.7616 27.7691 21.951C27.8005 22.5461 28.4775 22.8301 28.917 22.4289C29.2577 22.1223 29.4774 21.7526 29.6434 21.3243C29.316 21.4596 28.9842 21.5948 28.6569 21.7301C28.6569 21.7391 28.6569 21.7481 28.6524 21.7526C28.5941 21.6534 28.5358 21.5543 28.4775 21.4551C28.491 21.4821 28.4999 21.5137 28.5134 21.5407C28.6524 21.8789 28.9573 22.1178 29.3429 22.0141C29.6568 21.9284 29.9527 21.5227 29.8137 21.1801C29.6972 20.9051 29.5761 20.7383 29.334 20.5579C28.9528 20.2739 28.4865 20.5985 28.3475 20.9637C28.2668 21.1711 28.1278 21.3243 27.9664 21.4731C28.3475 21.6309 28.7331 21.7932 29.1142 21.951C29.0918 21.5272 28.9842 21.135 28.769 20.7698C28.5044 20.3235 27.8767 20.3415 27.6076 20.7698C27.3476 21.1846 27.0875 21.5948 26.8274 22.0096C27.2444 22.1223 27.6615 22.235 28.0829 22.3522C28.0516 21.8202 28.0247 21.2928 27.9933 20.7608C27.9395 19.8907 26.5943 19.8862 26.6436 20.7563Z" fill="#727272"/>
<path d="M27.0068 11.8162C26.9664 12.1588 26.9485 12.5014 26.9575 12.8441C26.9709 13.3129 27.5359 13.7457 27.9708 13.4302C28.195 13.2679 28.334 13.083 28.4103 12.817C28.4282 12.7539 28.4461 12.6818 28.4551 12.6187C28.4641 12.56 28.4999 12.5555 28.4506 12.6006C28.2175 12.817 27.9708 13.1281 27.5987 12.6773C27.639 12.7269 27.6256 12.7223 27.5987 12.6637C27.6301 12.7314 27.6525 12.808 27.6839 12.8756C27.7377 12.9928 27.8184 13.0965 27.9081 13.1867C28.1861 13.4617 28.5986 13.5158 28.9349 13.322C29.2532 13.1416 29.3564 12.7088 29.177 12.3977C28.9887 12.0777 28.5762 11.974 28.2578 12.1543C28.2444 12.1633 28.2264 12.1723 28.213 12.1813C28.3251 12.1498 28.4372 12.1182 28.5537 12.0912C28.5896 12.0867 28.9125 12.267 28.8856 12.276C28.9035 12.3121 28.9035 12.3121 28.89 12.2805C28.8766 12.2445 28.8631 12.2084 28.8452 12.1723C28.7914 12.0416 28.7286 11.9199 28.63 11.8117C28.4103 11.5817 28.0695 11.469 27.7601 11.5682C27.4686 11.6584 27.2758 11.8928 27.1817 12.1768C27.1592 12.24 27.1503 12.3031 27.1323 12.3707C27.1234 12.4023 27.1144 12.4293 27.1099 12.4609C27.092 12.5195 27.092 12.5195 27.1144 12.4609C27.1413 12.3752 27.1996 12.3076 27.2893 12.2625C27.6256 12.4564 27.9619 12.6502 28.3026 12.8486C28.2937 12.5059 28.3116 12.1633 28.352 11.8207C28.3968 11.469 28.0112 11.1309 27.6794 11.1444C27.2803 11.1625 27.0561 11.442 27.0068 11.8162Z" fill="#727272"/>
<path d="M26.5943 4.8823C26.4687 5.37822 26.5315 5.88766 26.796 6.32496C27.1099 6.85694 27.8318 6.69464 28.0246 6.16266C28.0964 5.9643 27.9888 6.28439 28.056 6.08151C28.0829 6.00487 28.1054 6.04094 28.0381 6.0725C27.8318 6.1807 27.5538 6.10856 27.4911 5.83806C27.5763 6.19422 27.9753 6.40611 28.3206 6.31144C28.6793 6.21225 28.8766 5.83806 28.7914 5.4774C28.6703 4.96345 28.1143 4.68844 27.6166 4.80566C27.1279 4.92739 26.8902 5.35567 26.7288 5.79749C27.1368 5.74339 27.5493 5.68929 27.9574 5.63519C27.8901 5.51797 27.8812 5.52699 27.8677 5.38723C27.8767 5.45937 27.8722 5.3692 27.8722 5.34666C27.8812 5.14829 27.8453 5.42781 27.8901 5.23395C27.9753 4.89132 27.778 4.48557 27.4193 4.39991C27.0741 4.32778 26.6884 4.51262 26.5943 4.8823Z" fill="#727272"/>
<path d="M7.36709 3.28655C7.1698 3.54803 6.99044 3.82303 6.8335 4.11157C6.56895 4.58494 7.01734 5.3243 7.59129 5.10339C7.79755 5.02675 7.99933 4.9456 8.20559 4.86896C7.93207 4.71117 7.65406 4.55338 7.37606 4.39559C7.41193 4.49928 7.42987 4.56691 7.42538 4.6706C7.4209 5.01323 7.73926 5.3784 8.09797 5.34684C8.43427 5.31979 8.72124 5.23864 9.02167 5.09438C9.34899 4.93659 9.43419 4.46321 9.2638 4.17017C9.0665 3.83205 8.67192 3.76894 8.34459 3.92673C8.27733 3.95828 8.15178 3.98984 8.09797 3.99435C8.32217 4.21977 8.54637 4.44518 8.77056 4.6706C8.77505 4.4542 8.74366 4.2378 8.67192 4.03493C8.55982 3.71484 8.20559 3.4263 7.84239 3.56155C7.63613 3.63819 7.43435 3.71934 7.22809 3.79599C7.47919 4.12509 7.73477 4.45871 7.98588 4.78781C8.1473 4.49928 8.32217 4.22427 8.51946 3.96279C8.73918 3.66975 8.5643 3.2054 8.27733 3.03859C7.94104 2.84473 7.5868 2.99351 7.36709 3.28655Z" fill="#727272"/>
<path d="M3.56029 10.8786C3.30471 11.4421 3.08499 12.0192 2.90564 12.6143C2.79354 12.984 3.04015 13.3266 3.37645 13.4483C3.66342 13.552 3.97281 13.4889 4.22391 13.3266C4.33153 13.2544 4.40327 13.1823 4.48398 13.0876C4.79338 12.718 4.3674 13.1958 4.1163 12.8848C4.05801 12.7856 3.99972 12.6864 3.94143 12.5872C3.90556 12.461 3.93246 12.7225 3.93246 12.718C3.94591 12.8217 3.97281 12.9299 4.02662 13.0245C4.12975 13.2003 4.31808 13.3446 4.51089 13.3987C4.87409 13.4979 5.34042 13.3581 5.49735 12.9885C5.64084 12.6548 5.596 12.2626 5.25522 12.0643C4.97273 11.8974 4.4795 11.9696 4.33601 12.3077C4.34947 12.2897 4.36292 12.2716 4.38085 12.2581C4.4795 12.1995 4.57815 12.1409 4.67679 12.0823C4.81131 12.1229 4.94583 12.1634 5.08035 12.204C5.13864 12.3032 5.19693 12.4024 5.25522 12.5016C5.29109 12.6278 5.26419 12.3167 5.25522 12.2852C5.21935 12.1499 5.15657 12.0282 5.0669 11.929C4.90099 11.7532 4.68576 11.6495 4.44363 11.636C4.22391 11.6269 4.02214 11.6901 3.84278 11.8163C3.75759 11.8749 3.68584 11.9425 3.61858 12.0237C3.34058 12.3483 3.53339 12.0733 3.73965 12.1454C3.89659 12.4249 4.05353 12.6999 4.21046 12.9794C4.35395 12.4971 4.52434 12.0282 4.7306 11.5683C4.87857 11.2347 4.82476 10.8425 4.48847 10.6441C4.19253 10.4683 3.70826 10.545 3.56029 10.8786Z" fill="#727272"/>
<path d="M2.07161 18.8539C1.92812 19.6293 1.92812 20.3822 2.08057 21.1576C2.1568 21.5408 2.56932 21.6851 2.9101 21.631C3.1074 21.5994 3.29124 21.4867 3.43024 21.3379C3.48853 21.2748 3.54234 21.1982 3.59166 21.126C3.61857 21.0855 3.64099 21.0449 3.66341 20.9998C3.70376 20.9367 3.69031 20.9412 3.61408 21.0043C3.49302 21.0043 3.37643 21.0043 3.25537 21.0043C3.28675 21.0133 3.31814 21.0223 3.34953 21.0314C3.25088 20.9728 3.15224 20.9141 3.05359 20.8555C3.00427 20.7518 2.99978 20.7564 3.04462 20.8691C3.06704 20.9232 3.08946 20.9773 3.11188 21.0314C3.18362 21.1666 3.28227 21.2748 3.40782 21.356C3.70824 21.5588 3.98176 21.5453 4.30461 21.3965C4.63642 21.2478 4.71713 20.7609 4.54674 20.4723C4.34945 20.1297 3.95935 20.0801 3.62753 20.2289C3.60511 20.2379 3.57821 20.2514 3.55579 20.2604C3.73066 20.2379 3.90105 20.2154 4.07593 20.1928C4.04902 20.1838 4.02212 20.1793 3.99522 20.1703C4.09386 20.2289 4.19251 20.2875 4.29116 20.3461C4.31806 20.4363 4.31806 20.4453 4.29564 20.3777C4.27322 20.3055 4.24632 20.2379 4.21493 20.1748C4.17457 20.0981 4.12973 20.0215 4.06696 19.9584C3.87863 19.7555 3.61857 19.6608 3.34505 19.6879C3.1074 19.7104 2.89665 19.8276 2.73075 19.999C2.65004 20.0801 2.58278 20.1748 2.52448 20.274C2.51103 20.301 2.4931 20.3281 2.47965 20.3551C2.39445 20.4814 2.41687 20.4678 2.55139 20.3191C2.82491 20.4768 3.10291 20.6346 3.38092 20.7924C3.27779 20.2695 3.2733 19.733 3.37195 19.21C3.43921 18.8493 3.2733 18.4797 2.90114 18.376C2.56932 18.2903 2.13887 18.4932 2.07161 18.8539Z" fill="#727272"/>
<path d="M3.03115 28.6142C3.21947 28.9929 3.40331 29.3716 3.59164 29.7503C3.75755 30.0839 4.21042 30.1606 4.51085 29.9938C4.75298 29.8585 4.91889 29.6421 4.99511 29.3716C5.03098 29.2499 5.0534 29.0966 5.03995 28.9704C5.0265 28.8261 5.08927 28.8667 5.01305 28.9343C4.9144 28.9929 4.81575 29.0515 4.71711 29.1101C4.70814 29.1146 4.69917 29.1146 4.6902 29.1192C4.57811 29.0876 4.46601 29.056 4.34942 29.029C4.58259 29.1642 4.69469 29.3806 5.03547 29.3806C5.43902 29.3806 5.5287 29.1417 5.77083 28.9028C5.67219 28.9614 5.57354 29.02 5.47489 29.0786C5.34486 28.9974 5.21483 28.9163 5.08479 28.8306C5.1386 29.1913 5.59148 29.3897 5.91432 29.304C6.29994 29.1958 6.43894 28.8351 6.38513 28.47C6.32236 28.0642 5.94122 27.7622 5.54664 27.7216C5.08479 27.6765 4.78437 27.929 4.56465 28.3077C4.64537 28.2265 4.72608 28.1454 4.80679 28.0642C4.78437 28.0822 4.75746 28.1003 4.73504 28.1183C4.84714 28.0868 4.95924 28.0552 5.07582 28.0281C5.0534 28.0281 5.0265 28.0281 5.00408 28.0281C5.11618 28.0597 5.22828 28.0913 5.34486 28.1183C5.26415 28.0732 5.0534 27.8433 4.87405 27.7937C4.61846 27.7216 4.34942 27.7757 4.13868 27.9335C3.95035 28.0732 3.82032 28.2806 3.75306 28.5015C3.70822 28.6413 3.75755 28.9253 3.6858 29.0245C3.76651 28.9433 3.84722 28.8622 3.92793 28.781C3.90103 28.7946 3.87413 28.8126 3.84274 28.8261C4.14765 28.9073 4.45704 28.9884 4.76195 29.0696C4.57362 28.6909 4.38978 28.3122 4.20145 27.9335C3.80687 27.149 2.64553 27.8343 3.03115 28.6142Z" fill="#727272"/>
<path d="M7.18329 38.6587C7.16087 39.2403 7.76172 39.5694 8.2684 39.4116C8.51053 39.335 8.68541 39.1637 8.80199 38.9473C8.81992 38.9112 8.83786 38.8706 8.8558 38.8346C8.95444 38.6768 8.8558 38.7219 8.55089 38.9788C8.41189 38.9608 8.47466 38.9608 8.57331 39.0149C8.89167 39.1907 9.30867 39.0915 9.49252 38.7715C9.67187 38.4604 9.56874 38.0231 9.25038 37.8472C8.91857 37.6624 8.54192 37.5542 8.17424 37.7075C7.98591 37.7886 7.82897 37.9239 7.72136 38.1042C7.68997 38.1538 7.65859 38.2124 7.64065 38.271C7.63168 38.2891 7.62271 38.3071 7.61375 38.3251C7.84691 38.0636 8.08904 38.0411 8.34463 38.2575C8.40292 38.3567 8.46121 38.4559 8.5195 38.5551C8.52399 38.5911 8.52847 38.6272 8.53295 38.6633C8.54641 38.3071 8.21459 37.969 7.86036 37.987C7.47923 38.0005 7.19674 38.28 7.18329 38.6587Z" fill="#727272"/>
<path d="M32.0377 5.15763C32.1184 5.56338 32.2574 5.94208 32.4323 6.31627C32.5982 6.66341 33.0511 6.70849 33.3515 6.55971C33.5219 6.47406 33.6609 6.32077 33.7506 6.15397C33.7775 6.10437 33.7954 6.05027 33.8223 5.99618C33.9658 5.6851 33.8179 6.15397 33.4726 6.1179C33.3605 6.08634 33.2484 6.05478 33.1318 6.02773C33.0556 5.99167 33.2439 6.11339 33.2439 6.11339C33.3157 6.16749 33.365 6.19905 33.4502 6.23512C33.625 6.31176 33.8044 6.32528 33.9927 6.29823C34.3963 6.23061 34.6339 5.96913 34.7864 5.60395C34.9254 5.26583 34.6339 4.86008 34.3156 4.76991C33.93 4.66171 33.6295 4.90516 33.486 5.24329C33.643 4.95025 33.8403 4.88713 34.0734 5.05394C34.0555 5.0359 34.0376 5.01787 34.0152 5.00435C33.93 4.91869 33.7685 4.82852 33.652 4.79696C33.4367 4.73836 33.2036 4.77442 33.0152 4.88713C32.8583 4.9818 32.7462 5.13058 32.67 5.29288C32.652 5.33345 32.6296 5.37854 32.6117 5.42362C32.5624 5.56789 32.5893 5.43264 32.67 5.39657C32.9749 5.47772 33.2843 5.55887 33.5892 5.64002C33.4636 5.37403 33.3874 5.09451 33.3291 4.80598C33.2618 4.44532 32.8314 4.24244 32.4996 4.33261C32.1364 4.42728 31.9705 4.79696 32.0377 5.15763Z" fill="#727272"/>
<path d="M33.5982 12.8982C33.6834 13.3265 33.773 13.7548 33.8582 14.1831C34.0017 14.8909 34.9478 14.7602 35.1541 14.1831C35.2214 13.9892 35.3379 13.863 35.4859 13.7278C35.1317 13.6827 34.7819 13.6376 34.4277 13.5925C34.5443 13.863 34.6653 14.138 34.7819 14.4085C34.9164 14.7196 35.4366 14.8548 35.7011 14.652C35.8626 14.5302 35.9926 14.422 36.0957 14.2417C36.1316 14.1786 36.1719 14.1019 36.1944 14.0298C36.2033 13.9983 36.2168 13.9667 36.2347 13.9397C36.3423 13.7413 36.1361 13.6782 35.6115 13.7503C35.5621 14.111 35.9567 14.4265 36.284 14.4265C36.6876 14.4265 36.9073 14.1155 36.9566 13.7503C37.0329 13.1868 36.5082 12.6773 35.9657 12.6773C35.6922 12.6773 35.4455 12.799 35.2617 12.9929C35.1765 13.0831 35.1182 13.1823 35.0599 13.2905C35.0241 13.3626 34.8851 13.588 35.0241 13.4843C35.329 13.5655 35.6384 13.6466 35.9433 13.7278C35.8267 13.4573 35.7056 13.1823 35.589 12.9118C35.4052 12.488 34.8178 12.515 34.5308 12.7765C34.208 13.0695 34.0017 13.4212 33.8538 13.8269C34.2842 13.8269 34.7192 13.8269 35.1496 13.8269C35.0644 13.3987 34.9747 12.9704 34.8895 12.5421C34.7236 11.6855 33.4233 12.0462 33.5982 12.8982Z" fill="#727272"/>
<path d="M34.7774 23.2403C34.7371 23.5784 34.7774 23.9256 34.8671 24.2502C34.9792 24.6424 35.4904 24.9084 35.8536 24.6559C36.0912 24.4891 36.2347 24.3088 36.3379 24.0383C36.3648 23.9707 36.3872 23.8985 36.4096 23.8264C36.45 23.6821 36.4096 23.876 36.293 23.894C36.172 23.894 36.0554 23.894 35.9343 23.894C35.8222 23.8489 35.7505 23.7813 35.7325 23.6821C35.7191 23.6371 35.7236 23.6506 35.7505 23.7227C35.7639 23.7633 35.7774 23.8084 35.7908 23.8489C35.867 24.0563 35.9747 24.2231 36.145 24.3629C36.5127 24.6604 36.9297 24.6109 37.2885 24.3313C37.5754 24.1059 37.5216 23.61 37.2885 23.3756C37.006 23.0915 36.6248 23.1502 36.3379 23.3756C36.3244 23.3891 36.3065 23.3981 36.293 23.4116C36.3917 23.353 36.4903 23.2944 36.589 23.2358C36.571 23.2403 36.5531 23.2448 36.5352 23.2493C36.6562 23.2493 36.7728 23.2493 36.8939 23.2493C36.9746 23.2629 37.0912 23.5108 37.0418 23.362C37.006 23.2448 36.9611 23.1231 36.8983 23.0194C36.71 22.7129 36.3782 22.537 36.024 22.5731C35.7101 22.6047 35.4545 22.803 35.2841 23.0645C35.2124 23.1772 35.1631 23.3034 35.1227 23.4297C35.1093 23.4702 35.0824 23.5289 35.0779 23.5694C35.0734 23.628 35.0644 23.5559 35.1765 23.4793C35.5038 23.6145 35.8357 23.7498 36.163 23.885C36.1002 23.6641 36.0912 23.4657 36.1181 23.2358C36.1585 22.8706 35.7774 22.5596 35.4456 22.5596C35.0554 22.5641 34.8223 22.8752 34.7774 23.2403Z" fill="#727272"/>
<path d="M34.4053 31.202C34.3694 31.6438 34.4053 32.0766 34.4725 32.5139C34.5532 33.0234 35.2752 33.1541 35.598 32.8115C35.7146 32.6898 35.8356 32.568 35.9612 32.4553C36.0733 32.3561 36.1899 32.257 36.2796 32.1938C35.9522 32.0586 35.6204 31.9233 35.2931 31.7881C35.3334 31.9053 35.3334 31.7701 35.32 31.8963C35.329 31.8016 35.2662 31.9819 35.311 31.9053C35.1362 32.2254 35.2348 32.6447 35.5532 32.8295C35.8626 33.0098 36.2975 32.9107 36.4724 32.5861C36.6652 32.2299 36.728 31.8151 36.5934 31.4274C36.4634 31.0577 35.9791 30.7467 35.607 31.0217C35.2662 31.2741 34.9478 31.5446 34.6564 31.8512C35.033 31.9504 35.4052 32.0496 35.7818 32.1488C35.737 31.8557 35.737 31.5131 35.7594 31.193C35.7863 30.8413 35.4321 30.5032 35.0868 30.5168C34.6922 30.5438 34.4367 30.8233 34.4053 31.202Z" fill="#727272"/>
<path d="M33.9748 40.0339C33.7327 40.4442 33.5489 40.895 33.4457 41.3639C33.365 41.72 33.5534 42.0942 33.9165 42.1979C34.2932 42.3016 34.616 42.0717 34.7461 41.7245C34.7864 41.6118 34.9209 41.3684 34.9927 41.2737C34.6743 41.2737 34.3605 41.2737 34.0421 41.2737C33.9614 41.1745 33.939 41.0663 33.9704 40.9401C33.9121 41.3008 34.0645 41.6659 34.4412 41.7741C34.764 41.8643 35.2079 41.6659 35.2707 41.3008C35.3335 40.9266 35.2662 40.5975 34.9972 40.3179C34.764 40.0745 34.2708 40.0339 34.0466 40.3179C33.7865 40.6425 33.5982 40.9716 33.4502 41.3639C33.8807 41.4856 34.3156 41.6028 34.7461 41.7245C34.8313 41.3458 34.9434 41.0483 35.1407 40.7192C35.3245 40.4036 35.2124 39.9753 34.8985 39.795C34.5802 39.6056 34.1632 39.7183 33.9748 40.0339Z" fill="#727272"/>
<path d="M38.8982 42.7343C38.6202 43.0995 38.4901 43.5504 38.4677 44.0057C38.4543 44.2717 38.6471 44.5287 38.8802 44.6233C39.1448 44.7315 39.4004 44.6684 39.6156 44.4836C39.9474 44.1995 40.2792 43.911 40.611 43.627C40.2568 43.5819 39.907 43.5368 39.5528 43.4917C39.5259 43.4512 39.5394 43.3926 39.5439 43.3475C39.5483 43.3159 39.6201 43.2077 39.5483 43.3204C39.3555 43.6315 39.4811 44.0643 39.7905 44.2446C40.1133 44.434 40.5169 44.3123 40.7097 44.0012C40.9384 43.636 40.9339 43.1717 40.7142 42.802C40.4765 42.4052 39.9878 42.3827 39.656 42.6667C39.3241 42.9507 38.9923 43.2393 38.6605 43.5233C39.0416 43.6811 39.4273 43.8434 39.8084 44.0012C39.8174 43.7983 39.7725 44.0913 39.8174 43.8975C39.8353 43.8299 39.8532 43.7577 39.8757 43.6901C39.8398 43.7848 39.9295 43.5954 39.9295 43.5909C39.9653 43.5278 40.0057 43.4692 40.0505 43.4151C40.2702 43.1221 40.0954 42.6577 39.8084 42.4909C39.4721 42.288 39.1224 42.4413 38.8982 42.7343Z" fill="#727272"/>
<path d="M41.3823 33.88C41.2881 34.3939 41.2343 34.9124 41.2298 35.4398C41.2208 36.1025 42.158 36.373 42.4853 35.7825C42.6871 35.4128 42.9247 35.0927 43.2207 34.7951C42.9472 34.8312 42.6781 34.8673 42.4046 34.8988C42.3911 34.8898 42.3732 34.8763 42.3598 34.8673C42.3015 34.7681 42.2432 34.6689 42.1849 34.5697C42.1714 34.5292 42.2163 34.4029 42.1714 34.5472C42.14 34.6373 42.1221 34.7816 42.1176 34.8673C42.1087 35.0837 42.1714 35.2956 42.297 35.4714C42.4405 35.6652 42.6781 35.796 42.9247 35.796C43.0593 35.796 43.2162 35.7554 43.3328 35.6923C43.3552 35.6788 43.3731 35.6698 43.3955 35.6562C43.5032 35.5886 43.4718 35.5841 43.3014 35.6427C43.1893 35.6111 43.0772 35.5796 42.9606 35.5525C42.7812 35.4624 42.7678 35.3587 42.7857 35.2279C42.7364 35.5886 42.8754 35.9538 43.2565 36.062C43.5704 36.1476 44.0323 35.9538 44.0861 35.5886C44.1399 35.2009 44.1219 34.8087 43.826 34.5156C43.678 34.3714 43.4538 34.2857 43.2476 34.2902C43.1131 34.2947 42.9561 34.3398 42.8395 34.4029C42.8081 34.421 42.6602 34.4841 42.7454 34.466C42.8664 34.466 42.983 34.466 43.1041 34.466C43.0862 34.4615 43.0637 34.4525 43.0458 34.448C43.1444 34.5066 43.2431 34.5652 43.3417 34.6238C43.3866 34.998 43.4269 35.0927 43.4673 34.9078C43.4852 34.8628 43.4942 34.8177 43.5032 34.7681C43.5256 34.6644 43.5345 34.5562 43.5256 34.448C43.5076 34.1505 43.3552 33.8664 43.0817 33.7357C42.8126 33.6004 42.4898 33.6185 42.2656 33.8394C41.8934 34.2136 41.5751 34.6373 41.3195 35.0972C41.7365 35.2099 42.1535 35.3226 42.575 35.4398C42.5795 35.0386 42.6109 34.6373 42.6826 34.2406C42.7454 33.88 42.584 33.5103 42.2118 33.4066C41.88 33.3164 41.445 33.5193 41.3823 33.88Z" fill="#727272"/>
<path d="M42.288 24.5704C42.0952 25.0348 42.0907 25.5622 42.2387 26.0401C42.445 26.6983 43.3148 26.6668 43.5346 26.0401C43.6467 25.7155 43.8484 25.4585 44.104 25.2331C43.7229 25.0753 43.3373 24.913 42.9561 24.7553C42.9696 24.9852 42.9875 25.2151 43.001 25.4405C43.0279 25.8372 43.2879 26.0717 43.6736 26.1168C43.8888 26.1438 44.0861 26.0717 44.2654 25.9545C44.3417 25.9049 44.4089 25.8463 44.4672 25.7786C44.4896 25.7471 44.5165 25.72 44.539 25.693C44.6197 25.6073 44.5524 25.6254 44.3327 25.7471C44.2206 25.7155 44.1085 25.684 43.9919 25.6569C43.956 25.6163 43.9157 25.5758 43.8798 25.5352C43.8484 25.4225 43.817 25.3098 43.7901 25.1926C43.7901 25.2106 43.7901 25.2286 43.7946 25.2467C43.826 25.134 43.8574 25.0212 43.8843 24.904C43.8753 24.9176 43.8664 24.9356 43.8574 24.9491C43.4 25.693 44.5659 26.3737 45.0187 25.6299C45.2878 25.1926 45.0636 24.6245 44.5928 24.4532C44.3461 24.363 44.095 24.3811 43.8664 24.5073C43.7722 24.5569 43.6915 24.629 43.6153 24.7057C43.5973 24.7237 43.5839 24.7462 43.5659 24.7643C43.4763 24.8544 43.5121 24.8544 43.6736 24.7643C43.8978 24.9897 44.122 25.2151 44.3461 25.4405C44.3327 25.2106 44.3148 24.9807 44.3013 24.7553C44.261 24.1556 43.6018 23.8806 43.1534 24.2774C42.723 24.6606 42.427 25.1385 42.2387 25.6795C42.6692 25.6795 43.1041 25.6795 43.5346 25.6795C43.4494 25.4044 43.4763 25.1926 43.5839 24.9311C43.7229 24.593 43.4314 24.1872 43.1131 24.097C42.7274 23.9888 42.427 24.2323 42.288 24.5704Z" fill="#727272"/>
<path d="M41.7276 12.7178C41.7634 13.0964 41.8038 13.4797 41.8397 13.8584C41.871 14.192 42.0683 14.4805 42.4226 14.5211C42.7454 14.5617 43.0772 14.3678 43.1624 14.0387C43.2342 13.7502 43.3328 13.4887 43.4763 13.2317C43.0907 13.2317 42.7006 13.2317 42.315 13.2317C42.3822 13.3579 42.4495 13.4842 42.5123 13.6059C42.7589 14.0702 43.4135 14.0161 43.6736 13.6059C43.696 13.5698 43.7274 13.5383 43.7274 13.5247C43.7991 13.4616 43.7498 13.4661 43.5884 13.5383C43.5167 13.5788 43.4449 13.5879 43.3732 13.5743C43.2925 13.4932 43.2118 13.412 43.131 13.3309C43.1266 13.3128 43.1221 13.2948 43.1176 13.2768C43.3777 14.1018 44.678 13.7502 44.4135 12.9161C44.2789 12.4923 43.9112 12.2263 43.4629 12.2399C43.0279 12.2534 42.723 12.578 42.5078 12.9206C42.8934 12.9206 43.2835 12.9206 43.6691 12.9206C43.6019 12.7944 43.5346 12.6682 43.4718 12.5464C43.2387 12.1046 42.5481 12.1091 42.3105 12.5464C42.1177 12.9026 41.9652 13.2813 41.8621 13.678C42.3015 13.7366 42.7409 13.7997 43.1848 13.8584C43.149 13.4797 43.1086 13.0964 43.0727 12.7178C43.0369 12.3526 42.7903 12.0415 42.4002 12.0415C42.0639 12.0415 41.6917 12.3526 41.7276 12.7178Z" fill="#727272"/>
<path d="M38.3959 5.15745C38.5663 5.59025 38.7771 5.95091 39.073 6.31158C39.4138 6.72634 40.055 6.45585 40.1985 6.01403C40.3016 5.68943 40.3465 5.33778 40.3151 4.99966C39.8981 5.11237 39.4811 5.22508 39.0596 5.34229C39.1896 5.59476 39.3735 5.82468 39.5932 6.00501C39.8757 6.23494 40.2702 6.28002 40.5438 6.00501C40.7814 5.76607 40.8262 5.27918 40.5438 5.04925C40.463 4.98614 40.3868 4.914 40.324 4.83736C40.2568 4.7517 40.3644 4.90499 40.3061 4.81031C40.2747 4.76072 40.2478 4.71113 40.2209 4.66154C40.0819 4.39104 39.7366 4.26931 39.4586 4.34596C39.1941 4.41809 38.9385 4.70662 38.9654 4.99966C38.9923 5.28368 38.9833 5.39639 38.8982 5.65337C39.2748 5.55418 39.647 5.455 40.0236 5.35582C39.9653 5.28819 39.907 5.20253 39.8398 5.08532C39.8084 5.03122 39.777 4.97261 39.7456 4.91851C39.7366 4.90499 39.6649 4.73367 39.6873 4.80129C39.5528 4.46317 39.2389 4.22423 38.8578 4.32792C38.5439 4.41358 38.2614 4.81482 38.3959 5.15745Z" fill="#727272"/>
<path d="M45.1891 4.63449C45.2429 4.91852 45.3506 5.19352 45.4985 5.44599C45.651 5.70296 45.9693 5.83821 46.2563 5.75706C46.5612 5.6714 46.7226 5.40541 46.7495 5.10336C46.7809 4.78777 46.8123 4.46768 46.8437 4.1521C46.5074 4.34596 46.1711 4.53982 45.8303 4.73818C46.0366 4.89147 46.2429 5.04926 46.4491 5.20254C46.7406 5.41894 47.2024 5.25213 47.3683 4.95909C47.5701 4.61646 47.4177 4.25129 47.1262 4.03489C46.9199 3.8816 46.7137 3.72381 46.5074 3.57053C46.3191 3.43077 46.0187 3.45782 45.8303 3.57053C45.6106 3.70127 45.5209 3.90865 45.4985 4.15661C45.4671 4.47219 45.4358 4.79228 45.4044 5.10786C45.8214 4.99516 46.2384 4.88245 46.6599 4.76523C46.5523 4.5849 46.5254 4.49924 46.485 4.27834C46.4177 3.91767 45.9873 3.7148 45.6555 3.80496C45.2878 3.90415 45.1264 4.27383 45.1891 4.63449Z" fill="#727272"/>
<path d="M48.1754 12.7494C48.2382 13.1236 48.3279 13.4843 48.449 13.8449C48.588 14.2732 49.0364 14.4536 49.4354 14.2507C49.682 14.1245 49.839 13.89 49.9018 13.624C49.9331 13.5023 49.9376 13.3716 49.9466 13.2408C49.9466 13.1957 49.9511 13.1507 49.9556 13.1056C49.9466 13.2949 49.821 13.4167 49.5744 13.4798C49.4623 13.4482 49.3502 13.4167 49.2337 13.3896C49.7628 13.6511 50.1753 13.8269 50.7806 13.6917C51.6236 13.5023 51.2694 12.1949 50.4219 12.3888C50.2112 12.4384 50.0901 12.3121 49.9107 12.222C49.5969 12.0687 49.2381 12.0912 48.9646 12.3076C48.7584 12.4699 48.6642 12.6953 48.6283 12.9523C48.6149 13.0515 48.6104 13.1462 48.6014 13.2453C48.5925 13.331 48.5969 13.3355 48.6059 13.2679C48.5611 13.4212 48.6104 13.358 48.7584 13.0875C49.0857 13.2228 49.4175 13.358 49.7448 13.4933C49.6282 13.1326 49.5386 12.772 49.4713 12.3978C49.4085 12.0371 48.9691 11.8342 48.6418 11.9244C48.2651 12.0191 48.1127 12.3888 48.1754 12.7494Z" fill="#727272"/>
<path d="M49.7403 22.5325C49.6955 22.8752 49.6462 23.2178 49.6013 23.5604C49.561 23.8625 49.6282 24.16 49.9107 24.3223C50.1439 24.4621 50.5474 24.4486 50.7268 24.2186C50.8254 24.0879 50.9241 23.9797 51.081 23.9256C50.7985 23.7092 50.5116 23.4928 50.2291 23.2719C50.238 23.5424 50.2425 23.8129 50.2515 24.0834C50.265 24.5342 50.6685 24.8408 51.1034 24.7371C51.3187 24.6875 51.498 24.5793 51.6684 24.4441L51.8343 24.3133C51.8209 24.2953 51.6057 24.3088 51.5563 24.2547C51.498 24.1555 51.4397 24.0563 51.3815 23.9572C51.3904 23.9797 51.3949 24.0022 51.4039 24.0248C51.6864 24.8408 52.9867 24.4891 52.6997 23.6641C52.5428 23.2178 52.1841 22.9653 51.7088 22.9789C51.516 22.9834 51.3142 23.0465 51.1483 23.1457C51.0138 23.2268 50.8882 23.3936 50.7358 23.4297C51.0183 23.6461 51.3052 23.8625 51.5877 24.0834C51.5787 23.8129 51.5743 23.5424 51.5653 23.2719C51.5563 22.8571 51.1393 22.4739 50.7133 22.6182C50.3412 22.7489 50.0094 22.9473 49.7672 23.2629C50.1439 23.4838 50.5161 23.7002 50.8927 23.9211C50.9375 23.5785 50.9869 23.2358 51.0317 22.8932C51.081 22.5325 50.9465 22.1674 50.5609 22.0592C50.256 21.9735 49.7897 22.1674 49.7403 22.5325Z" fill="#727272"/>
<path d="M47.8078 33.7311C47.7136 34.1144 47.6194 34.4976 47.5298 34.8808C47.4446 35.2324 47.6374 35.6201 48.0006 35.7148C48.3234 35.8005 48.6328 35.7373 48.8974 35.5255C49.1081 35.3541 49.1843 35.0881 49.3771 34.9213C49.2785 34.9799 49.1798 35.0386 49.0812 35.0972C49.1126 35.0836 49.144 35.0701 49.1798 35.0566C49.0588 35.0566 48.9422 35.0566 48.8211 35.0566C48.8525 35.0611 48.8839 35.0701 48.9198 35.0746C48.7853 34.9709 48.6507 34.8672 48.5162 34.7635C48.5072 34.7094 48.5117 34.723 48.5252 34.8131C48.5566 34.8898 48.588 34.9664 48.6238 35.0431C48.7135 35.1918 48.8525 35.2955 49.005 35.3632C49.1664 35.4353 49.3457 35.4443 49.5206 35.4082C49.5789 35.4037 49.6372 35.3857 49.691 35.3632C49.9556 35.2775 49.9018 35.2504 49.5296 35.2865C49.4489 35.2054 49.3682 35.1242 49.2875 35.0431C49.2964 35.0566 49.3099 35.0746 49.3188 35.0881C49.2875 34.9754 49.2561 34.8627 49.2292 34.7455C49.2292 34.7635 49.2292 34.7861 49.2247 34.8041C49.1843 35.6742 50.5295 35.6742 50.5699 34.8041C50.5878 34.4344 50.3367 34.1234 49.9914 34.0152C49.83 33.9656 49.6507 33.9611 49.4847 34.0016C49.4265 34.0152 49.1978 34.0603 49.265 34.0693C49.3771 34.1008 49.4892 34.1324 49.6058 34.1594C49.5834 34.1459 49.5655 34.1279 49.543 34.1143C49.6237 34.1955 49.7045 34.2766 49.7852 34.3578C49.7538 34.2947 49.682 34.0557 49.5699 33.9385C49.3906 33.7582 49.0633 33.677 48.8211 33.7447C48.6238 33.7988 48.4534 33.916 48.3189 34.0648C48.2472 34.1459 48.1844 34.2361 48.1306 34.3307C48.1127 34.3623 48.0992 34.3939 48.0813 34.4209C47.9557 34.5922 48.0499 34.5877 48.3638 34.4029C48.5207 34.6824 48.6776 34.9574 48.8346 35.2369C48.9287 34.8537 49.0229 34.4705 49.1126 34.0873C49.3099 33.2442 48.014 32.8836 47.8078 33.7311Z" fill="#727272"/>
<path d="M46.3819 41.8642C46.4805 41.9408 46.5792 42.0174 46.6778 42.0941C46.9648 42.3195 47.4311 42.1392 47.597 41.8506C47.7988 41.5035 47.6463 41.1473 47.3549 40.9264C47.2562 40.8498 47.1576 40.7731 47.0589 40.6965C46.772 40.4711 46.3056 40.6514 46.1397 40.94C45.938 41.2871 46.0949 41.6387 46.3819 41.8642Z" fill="#727272"/>
</g>
<defs>
<clipPath id="clip0_5_1505">
<rect width="55" height="48" fill="white"/>
</clipPath>
</defs>
</svg>
