<svg width="151" height="20" viewBox="0 0 151 20" fill="none" xmlns="http://www.w3.org/2000/svg">
<path d="M25.3056 15H30.6096V13.765H26.6836V6.42H25.3056V15ZM31.4512 11.802C31.4122 13.609 32.9852 15.182 34.8182 15.143C36.6772 15.182 38.2502 13.609 38.2112 11.802C38.2502 9.995 36.6772 8.435 34.8182 8.474C32.9852 8.448 31.4122 9.969 31.4512 11.802ZM36.8072 11.815C36.8072 12.972 35.9492 13.882 34.8182 13.882C33.7002 13.882 32.8422 12.998 32.8422 11.815C32.8422 10.632 33.7002 9.722 34.8312 9.722C35.9362 9.722 36.8072 10.632 36.8072 11.815ZM44.7811 8.617V9.527C44.3131 8.864 43.4941 8.474 42.5191 8.474C40.7511 8.474 39.4121 9.813 39.4121 11.672C39.4121 13.531 40.7381 14.87 42.5191 14.87C43.4031 14.87 44.1961 14.545 44.6771 13.96V14.415C44.6771 15.611 43.9231 16.235 42.7661 16.235C41.8951 16.235 41.2451 15.897 40.5301 15.325L39.7761 16.274C40.5431 16.989 41.5831 17.483 42.8441 17.483C44.7811 17.483 46.0421 16.352 46.0421 14.337V8.617H44.7811ZM44.6901 11.659C44.6901 12.309 44.4951 12.803 44.1181 13.154C43.7411 13.505 43.2991 13.674 42.7661 13.674C42.2071 13.674 41.7521 13.492 41.3751 13.128C40.9981 12.751 40.8161 12.27 40.8161 11.672C40.8161 11.087 40.9981 10.606 41.3751 10.242C41.7521 9.878 42.2071 9.696 42.7661 9.696C43.8191 9.696 44.6901 10.359 44.6901 11.659ZM48.0153 15H49.3803V8.617H48.0153V15ZM47.7683 6.238C47.7683 6.745 48.1843 7.135 48.7043 7.135C49.2113 7.135 49.6273 6.745 49.6273 6.238C49.6273 5.731 49.2113 5.328 48.7043 5.328C48.1843 5.328 47.7683 5.731 47.7683 6.238ZM56.9312 11.009C56.9312 9.488 56.0342 8.474 54.5392 8.474C53.7462 8.474 53.1092 8.734 52.6282 9.241V8.617H51.3542V15H52.7192V11.191C52.7192 10.32 53.3302 9.709 54.1752 9.709C55.0072 9.709 55.5662 10.307 55.5662 11.191V15H56.9312V11.009ZM70.4928 8.617L68.8418 12.738L66.8788 8.474H66.4108L64.4738 12.79L62.7968 8.617H61.3408L64.1748 15.143H64.6428L66.6448 10.892L68.6468 15.143H69.1148L71.9488 8.617H70.4928ZM73.1775 15H74.5425V8.617H73.1775V15ZM72.9305 6.238C72.9305 6.745 73.3465 7.135 73.8665 7.135C74.3735 7.135 74.7895 6.745 74.7895 6.238C74.7895 5.731 74.3735 5.328 73.8665 5.328C73.3465 5.328 72.9305 5.731 72.9305 6.238ZM80.3123 13.843C79.9353 13.882 79.6623 13.908 79.4673 13.908C78.6353 13.908 78.2063 13.622 78.2063 12.803V9.8H80.1043V8.617H78.2063V6.94H76.8283V8.617H75.7883V9.8H76.8283V12.92C76.8283 14.415 77.7123 15.143 79.1813 15.143C79.5063 15.143 79.8833 15.091 80.3123 15V13.843ZM87.273 11.009C87.273 9.501 86.363 8.474 84.907 8.474C84.14 8.474 83.49 8.747 83.061 9.254V5.25H81.696V15H83.061V11.204C83.061 10.333 83.672 9.722 84.517 9.722C85.362 9.722 85.908 10.32 85.908 11.204V15H87.273V11.009ZM92.9081 15H94.2861V11.464H97.6921V10.216H94.2861V7.655H98.4201V6.42H92.9081V15ZM104.425 11.139C104.425 9.423 103.385 8.474 101.812 8.474C100.707 8.474 99.7582 8.916 99.1212 9.839L99.9142 10.645C100.447 10.008 100.967 9.696 101.682 9.696C102.553 9.696 103.047 10.177 103.047 11.061V11.477H101.24C99.7972 11.477 98.8872 12.192 98.8872 13.297C98.8872 14.402 99.7712 15.143 101.11 15.143C101.981 15.143 102.683 14.844 103.151 14.285V15H104.425V11.139ZM103.047 12.582C103.047 13.453 102.319 14.09 101.396 14.09C100.733 14.09 100.278 13.778 100.278 13.245C100.278 12.725 100.681 12.465 101.409 12.465H103.047V12.582ZM105.922 11.802C105.922 13.661 107.417 15.143 109.302 15.143C110.459 15.143 111.421 14.584 111.993 13.661L111.031 12.92C110.563 13.557 109.991 13.882 109.315 13.882C108.171 13.882 107.313 12.972 107.313 11.802C107.313 10.645 108.171 9.735 109.315 9.735C110.004 9.735 110.576 10.06 111.031 10.71L111.993 9.956C111.434 9.033 110.485 8.474 109.302 8.474C107.469 8.448 105.883 9.969 105.922 11.802ZM119.117 12.257C119.182 11.958 119.221 11.672 119.221 11.399C119.221 9.735 117.96 8.474 116.27 8.474C114.463 8.435 112.929 9.982 112.968 11.815C112.968 13.7 114.45 15.143 116.4 15.143C117.375 15.143 118.22 14.805 118.948 14.116L118.298 13.18C117.726 13.687 117.102 13.934 116.439 13.934C115.347 13.934 114.528 13.297 114.359 12.257H119.117ZM114.385 11.191C114.593 10.242 115.321 9.631 116.218 9.631C117.115 9.631 117.843 10.216 117.856 11.191H114.385ZM127.415 11.815C127.415 9.917 126.089 8.474 124.282 8.474C123.398 8.474 122.631 8.812 122.15 9.397V5.25H120.785V15H122.059V14.116C122.54 14.779 123.359 15.143 124.295 15.143C126.076 15.143 127.415 13.7 127.415 11.815ZM126.011 11.802C126.011 13.024 125.166 13.895 124.061 13.895C123.06 13.895 122.137 13.206 122.137 11.815C122.137 10.411 123.06 9.722 124.061 9.722C125.153 9.722 126.011 10.58 126.011 11.802ZM128.583 11.802C128.544 13.609 130.117 15.182 131.95 15.143C133.809 15.182 135.382 13.609 135.343 11.802C135.382 9.995 133.809 8.435 131.95 8.474C130.117 8.448 128.544 9.969 128.583 11.802ZM133.939 11.815C133.939 12.972 133.081 13.882 131.95 13.882C130.832 13.882 129.974 12.998 129.974 11.815C129.974 10.632 130.832 9.722 131.963 9.722C133.068 9.722 133.939 10.632 133.939 11.815ZM136.505 11.802C136.466 13.609 138.039 15.182 139.872 15.143C141.731 15.182 143.304 13.609 143.265 11.802C143.304 9.995 141.731 8.435 139.872 8.474C138.039 8.448 136.466 9.969 136.505 11.802ZM141.861 11.815C141.861 12.972 141.003 13.882 139.872 13.882C138.754 13.882 137.896 12.998 137.896 11.815C137.896 10.632 138.754 9.722 139.885 9.722C140.99 9.722 141.861 10.632 141.861 11.815ZM144.83 15H146.195V5.25H144.83V15ZM147.846 11.425L150.42 8.617H148.73L146.234 11.412L149.003 15H150.641L147.846 11.425Z" fill="#727272"/>
<g clip-path="url(#clip0_9_1020)">
<path d="M13.3308 3.32083H15.1566V0.140826C14.8416 0.0974924 13.7583 -7.62939e-06 12.4966 -7.62939e-06C6.71993 -7.62939e-06 8.2916 6.54166 8.0616 7.49999H5.15576V11.055H8.06076V20H11.6224V11.0558H14.4099L14.8524 7.50083H11.6216C11.7783 5.14749 10.9874 3.32083 13.3308 3.32083Z" fill="#3B5999"/>
</g>
<defs>
<clipPath id="clip0_9_1020">
<rect width="20" height="20" fill="white"/>
</clipPath>
</defs>
</svg>
