<svg width="150" height="35" viewBox="0 0 150 35" fill="none" xmlns="http://www.w3.org/2000/svg">
<path d="M17.15 0C7.67748 0 0 7.67746 0 17.15C0 26.0201 6.73548 33.3175 15.3711 34.207C14.8496 29.9134 15.0436 26.4001 15.7067 23.5135C15.3347 21.7225 14.4898 19.0703 12.5734 17.1864C12.5734 17.1864 13.8348 19.0784 14.5181 21.6214C14.5181 21.6255 14.5221 21.6295 14.5221 21.6335C14.5949 21.9044 14.6596 22.1793 14.7162 22.4623C14.7283 22.527 14.7404 22.5917 14.7526 22.6604C14.8051 22.9515 14.8536 23.2426 14.886 23.5418C5.19513 22.3532 3.12921 13.6569 3.35561 10.3781C13.665 10.9482 15.7754 17.8292 16.0827 22.0985C19.4585 11.0412 30.1843 10.4024 31.0697 10.3781C31.4538 18.8763 25.1509 25.5026 17.6149 26.0807C17.6635 25.8503 17.7201 25.6198 17.7767 25.3934C17.7928 25.3247 17.813 25.26 17.8333 25.1913C17.8777 25.0296 17.9222 24.8679 17.9748 24.7061C17.995 24.6374 18.0192 24.5646 18.0394 24.4959C18.096 24.318 18.1567 24.1442 18.2173 23.9663C18.2335 23.9259 18.2456 23.8854 18.2618 23.845C18.3386 23.6348 18.4195 23.4326 18.5003 23.2305C18.5084 23.2143 18.5125 23.1941 18.5205 23.1779C18.5205 23.1779 18.5205 23.1779 18.5246 23.1779C20.4571 18.5043 24.0229 15.4439 24.0229 15.4439C17.0247 19.4868 15.8441 29.9983 15.6582 34.2231C16.1514 34.2676 16.6446 34.2999 17.15 34.2999C26.6225 34.2999 34.3 26.6225 34.3 17.15C34.3 7.67746 26.6225 0 17.15 0Z" fill="#46A358"/>
<path d="M46.7037 10.7454C48.9718 10.7454 50.8235 11.7198 52.0242 13.4987L49.7764 15.4109C48.9718 14.287 47.9975 13.7048 46.6471 13.7048C44.5691 13.7048 43.2753 15.0713 43.2753 17.1534C43.2753 19.2719 44.6418 20.695 46.8372 20.695C48.0177 20.695 48.9556 20.2826 49.554 19.5913V19.0091H46.6673V16.2357H52.7762V20.1331C52.194 21.164 51.3693 21.9888 50.3019 22.6235C49.2346 23.242 48.0339 23.5614 46.7037 23.5614C42.9923 23.618 39.9237 20.7314 39.9763 17.1534C39.9197 13.5957 42.9923 10.6888 46.7037 10.7454Z" fill="#46A358"/>
<path d="M61.9576 23.3317L59.168 19.491H57.8379V23.3317H54.6157V10.9685H59.4672C62.2204 10.9685 64.2459 12.6544 64.2459 15.2216C64.2459 16.7377 63.5141 17.9951 62.2972 18.743L65.5558 23.3317H61.9576ZM57.8338 16.6811H59.4833C60.3809 16.6811 60.963 16.099 60.963 15.2216C60.963 14.3443 60.3809 13.7783 59.4833 13.7783H57.8338V16.6811Z" fill="#46A358"/>
<path d="M66.8333 10.9685H75.4124V13.8713H70.0555V15.5774H73.876V18.274H70.0555V20.4289H75.6388V23.3317H66.8333V10.9685Z" fill="#46A358"/>
<path d="M77.6441 10.9685H86.2231V13.8713H80.8663V15.5774H84.6868V18.274H80.8663V20.4289H86.4495V23.3317H77.6441V10.9685Z" fill="#46A358"/>
<path d="M99.4192 10.9686V23.5582H98.3882L91.681 17.0572V23.3318H88.4588V10.7422H89.4897L96.197 17.1502V10.9686H99.4192Z" fill="#46A358"/>
<path d="M103.264 19.1351C103.996 20.1095 104.764 20.728 106.017 20.728C106.862 20.728 107.291 20.4289 107.291 19.8265C107.291 19.2847 107.008 19.1149 106.033 18.6823L104.76 18.1204C102.718 17.2188 101.631 16.0585 101.631 14.3928C101.631 12.2016 103.43 10.738 105.957 10.738C107.998 10.738 109.442 11.7124 110.19 13.2285L108.035 14.878C107.436 13.9804 106.874 13.5681 105.993 13.5681C105.318 13.5681 104.889 13.8309 104.889 14.3564C104.889 14.8052 105.152 15.0518 105.957 15.3672L107.38 15.9655C109.535 16.8671 110.545 17.9506 110.545 19.6931C110.545 22.0905 108.576 23.554 106.009 23.554C103.782 23.554 101.982 22.4867 101.081 20.7806L103.264 19.1351Z" fill="#46A358"/>
<path d="M112.393 10.9685H115.615V15.4844H120.131V10.9685H123.353V23.3317H120.131V18.3872H115.615V23.3317H112.393V10.9685Z" fill="#46A358"/>
<path d="M131.843 10.7422C135.441 10.6654 138.607 13.6086 138.53 17.1502C138.603 20.7282 135.441 23.6148 131.843 23.5582C128.229 23.6148 125.116 20.7282 125.193 17.1502C125.116 13.6086 128.229 10.6694 131.843 10.7422ZM131.859 13.7016C129.874 13.7016 128.488 15.1085 128.488 17.1502C128.488 18.1811 128.807 19.022 129.426 19.6608C130.044 20.2794 130.869 20.5988 131.859 20.5988C133.772 20.5988 135.231 19.2121 135.231 17.1502C135.235 15.1085 133.772 13.7016 131.859 13.7016Z" fill="#46A358"/>
<path d="M140.374 10.9685H145.226C147.979 10.9685 150.004 12.6544 150.004 15.2216C150.004 17.7525 147.926 19.491 145.226 19.491H143.596V23.3317H140.374V10.9685ZM145.242 16.6811C146.139 16.6811 146.721 16.099 146.721 15.2216C146.721 14.3443 146.139 13.7783 145.242 13.7783H143.592V16.6811H145.242Z" fill="#46A358"/>
</svg>
